<svg width="346" height="128" viewBox="0 0 346 128" fill="none" xmlns="http://www.w3.org/2000/svg">
<g clip-path="url(#clip0_305_348)">
<path d="M128.306 6.98131L27.1118 -0.0234375L23.4163 42.7055L130.328 43.7563L128.306 6.98131ZM38.4072 22.8119C40.1503 24.1195 42.0562 25.4038 44.1014 26.6646C45.029 27.1563 45.828 27.8607 46.4337 28.7208C47.0394 29.5808 47.4348 30.5723 47.5877 31.6146C47.6795 32.7779 47.5419 33.9482 47.183 35.058C46.824 36.1678 46.2508 37.1955 45.4959 38.0824C44.5248 39.2514 43.252 40.1292 41.817 40.6194C40.382 41.1095 38.8404 41.1932 37.3613 40.8611C33.5961 40.4408 31.667 37.1018 31.6205 30.8442L35.5949 30.4705C36.0132 34.5566 37.3149 36.5179 39.4531 36.2845C41.5913 36.051 42.7534 35.047 42.9394 33.1791C43.1253 31.3112 41.3357 29.49 37.5473 27.6688C35.8008 26.9129 34.3143 25.6574 33.2729 24.0589C32.2314 22.4605 31.681 20.5896 31.6903 18.6792C31.4899 16.8729 31.9016 15.0514 32.8589 13.5092C33.8163 11.967 35.2634 10.7942 36.9662 10.1803C40.6229 8.62366 43.4041 9.03609 45.3099 11.4177C47.3527 14.1536 48.2833 17.5678 47.913 20.9676L43.0555 21.3412C42.7999 16.6714 41.7772 14.1962 39.9876 14.3363C38.198 14.4764 37.0592 15.5271 36.5479 17.6519C36.276 18.5991 36.3094 19.6084 36.6434 20.5353C36.9773 21.4622 37.5948 22.2591 38.4072 22.8119ZM55.2574 38.3859L50.6091 38.5262C50.9345 31.0233 50.981 22.2828 50.7485 12.305L55.5363 12.1649C55.1645 20.3371 55.0715 29.0774 55.2574 38.3859ZM51.3296 8.96607L49.5632 6.84122C50.9809 5.55701 52.6078 4.20288 54.4672 2.73189L56.2801 5.65053C54.8623 6.5378 53.2122 7.65852 51.3296 8.96607ZM69.923 17.9788L62.0672 17.792V25.9643L68.5982 25.7773V30.1904H62.4856L62.8806 39.3901H58.2323C58.2323 34.0665 58.0697 25.007 57.7443 12.2116L70.0159 11.838L69.923 17.9788ZM76.0819 38.3859L71.2941 38.5262C71.6195 31.0233 71.666 22.2828 71.4336 12.305L76.2214 12.1649C75.9425 20.3371 75.896 29.0774 76.0819 38.3859ZM78.2203 39.717C77.8716 28.3226 77.6857 19.193 77.5927 12.3284L81.9854 11.9315C81.9854 22.6409 81.9854 30.1748 81.9854 34.5333L90.8405 34.1131V39.4599L78.2203 39.717ZM97.046 38.3859L92.3977 38.5262C92.723 31.0233 92.7695 22.2828 92.5371 12.305L97.3249 12.1649C96.9685 20.3371 96.8756 29.0774 97.046 38.3859ZM105.506 22.8119C107.249 24.1195 109.132 25.4038 111.2 26.6646C112.122 27.1636 112.917 27.8703 113.521 28.729C114.126 29.5878 114.525 30.5753 114.687 31.6146C114.849 33.9613 114.099 36.2799 112.595 38.0824C111.624 39.2514 110.351 40.1292 108.916 40.6194C107.481 41.1095 105.939 41.1932 104.46 40.8611C100.672 40.4408 98.7659 37.1018 98.6962 30.8442L102.694 30.4705C103.112 34.5566 104.39 36.5179 106.529 36.2845C108.667 36.051 109.852 35.047 110.038 33.1791C110.224 31.3112 108.411 29.49 104.646 27.6688C102.894 26.9205 101.402 25.6668 100.36 24.0666C99.3173 22.4665 98.7707 20.5916 98.7891 18.6792C98.5872 16.8758 98.9955 15.0566 99.9484 13.5148C100.901 11.9729 102.343 10.7983 104.042 10.1803C107.698 8.62366 110.487 9.03609 112.409 11.4177C114.433 14.1629 115.361 17.5695 115.012 20.9676L110.154 21.3412C109.875 16.6714 108.853 14.1962 107.086 14.3363C105.32 14.4764 104.135 15.5271 103.647 17.6519C103.372 18.5966 103.402 19.6044 103.732 20.531C104.062 21.4577 104.675 22.2559 105.483 22.8119H105.506ZM121.961 36.4013H116.987C116.871 34.2765 116.778 32.4788 116.732 30.9611L122.217 30.7273L121.961 36.4013ZM116.871 20.664L116.639 15.1535L122.217 15.4105V20.4071C120.195 20.5472 118.382 20.6173 116.871 20.664Z" fill="black"/>
<path d="M32.6898 47.1419L31.9228 87.7227L24.439 87.5828V82.9129H24.2996C23.858 83.2165 23.5094 83.403 23.2769 83.5431C21.3133 84.9102 19.0541 85.7885 16.6859 86.1052C14.3177 86.4219 11.9086 86.1679 9.65734 85.3644C7.78663 84.6475 6.10202 83.5141 4.7301 82.049C3.32524 80.5508 2.22749 78.7893 1.49947 76.8653C0.777229 74.9655 0.422234 72.9449 0.453567 70.9114C0.451664 68.8825 0.854739 66.8738 1.63892 65.004C2.46611 62.9155 3.78135 61.0573 5.47371 59.5869C7.27555 58.0462 9.38301 56.9082 11.6561 56.2481C13.8496 55.5984 16.1343 55.3145 18.4194 55.4076C20.6641 55.4822 22.8768 55.9647 24.9503 56.8319C24.9503 53.563 25.0898 50.2942 25.1363 47.002L32.6898 47.1419ZM24.2996 64.9573C22.8532 63.9274 21.1771 63.2701 19.4187 63.0428C17.574 62.7809 15.6947 62.9241 13.9105 63.4629C12.7373 63.7413 11.6443 64.2891 10.7169 65.0628C9.78945 65.8365 9.05284 66.8153 8.5649 67.9227C7.75109 69.9284 7.75109 72.1744 8.5649 74.1801C8.85371 75.1127 9.34266 75.9704 9.99722 76.6926C10.6518 77.4147 11.456 77.9837 12.3533 78.3597C13.2956 78.7122 14.3137 78.8088 15.3051 78.6399C16.8026 78.4121 18.2403 77.8882 19.5351 77.0987L20.6041 76.4218C21.8591 75.7213 22.7424 75.1608 23.2769 74.7872C23.7664 74.411 24.2041 73.9715 24.5785 73.4798C24.5785 70.7713 24.5785 68.0862 24.7179 65.3777C24.5659 65.2509 24.4258 65.11 24.2996 64.9573Z" fill="black"/>
<path d="M66.6459 80.4143C63.9654 84.3369 59.9468 87.1363 55.3504 88.283C53.4138 88.7324 51.4076 88.7904 49.4485 88.4537C47.4894 88.117 45.6165 87.3923 43.9388 86.3217C42.2541 85.3153 40.772 84.0005 39.5694 82.4457C38.3108 80.8844 37.3495 79.1035 36.7338 77.1921C35.3142 72.9187 35.4461 68.2785 37.1057 64.0933C38.4709 60.0575 41.2562 56.6616 44.9382 54.5436C48.2267 52.6395 52.0783 51.9614 55.8153 52.6288C59.5922 53.2084 63.0294 55.151 65.4838 58.0927C68.0496 61.1463 69.4793 65.0007 69.528 68.9966V69.9539C69.528 71.7985 69.528 73.6197 69.528 75.4409L43.7296 77.5658C44.6093 78.9594 45.7936 80.1332 47.1926 80.998C48.1959 81.6421 49.3169 82.0791 50.49 82.2835C51.6632 82.4879 52.865 82.4559 54.0256 82.1889C57.16 81.3279 59.882 79.364 61.6954 76.6551L66.6459 80.4143ZM41.9864 71.425L63.3456 69.5335C63.3755 66.8308 62.4442 64.2063 60.7193 62.132C59.2055 60.3419 57.1025 59.157 54.7926 58.793C52.469 58.3811 50.0751 58.8026 48.0294 59.9838C45.6229 61.3789 43.8112 63.6146 42.9394 66.2649C42.3179 67.9141 41.9951 69.6616 41.9864 71.425Z" fill="black"/>
<path d="M92.8626 63.2293C92.344 61.9763 91.3725 60.9669 90.1433 60.4042C88.6716 59.6163 87.0228 59.2223 85.3556 59.2601C83.808 59.1677 82.2708 59.568 80.9628 60.4042C80.3947 60.803 79.9153 61.3159 79.5552 61.9108C79.1951 62.5057 78.9621 63.1696 78.871 63.8598C78.7308 64.4738 78.7536 65.1141 78.9371 65.7165C79.1207 66.3188 79.4586 66.8621 79.9169 67.2921C80.6078 67.9232 81.3918 68.4432 82.2411 68.8332C82.9151 69.2068 84.0074 69.7437 85.5414 70.4441C87.2613 71.238 88.5396 71.8686 89.3996 72.3122C90.7882 73.074 92.0765 74.0073 93.2344 75.0906C94.5962 76.415 95.5813 78.0807 96.088 79.9155C96.5946 81.7503 96.6044 83.688 96.1163 85.5279C95.8326 87.0026 95.227 88.3956 94.3428 89.6069C93.4587 90.8181 92.3181 91.8175 91.0033 92.5326C88.6458 93.922 85.9171 94.5421 83.1939 94.3072C81.7997 94.2473 80.4321 93.9039 79.1737 93.2979C77.9154 92.6919 76.7925 91.8359 75.8729 90.7814C74.8217 89.5312 74.0969 88.0375 73.7642 86.4354C73.4315 84.8333 73.5012 83.1733 73.9671 81.6051L81.1255 83.2394C81.0003 83.8557 81.0003 84.4912 81.1255 85.1075C81.2068 85.4132 81.3492 85.6992 81.5439 85.948C81.8465 86.2607 82.2076 86.5105 82.6064 86.6828C83.0052 86.8551 83.434 86.9466 83.868 86.9521C85.0651 87.0401 86.2614 86.772 87.3078 86.1814C87.7281 85.9558 88.0965 85.6438 88.3889 85.2657C88.6812 84.8875 88.8909 84.4518 89.0044 83.9868C89.2012 83.221 89.2012 82.4176 89.0044 81.6518C88.8265 81.1213 88.5142 80.6466 88.0981 80.2743C87.4276 79.6825 86.6951 79.1657 85.9133 78.7332C85.2393 78.3596 84.1004 77.8224 82.5433 77.122C80.8699 76.3514 79.6148 75.7446 78.8014 75.2776C77.438 74.5655 76.1724 73.6786 75.0362 72.6391C73.6637 71.3946 72.6391 69.8111 72.0642 68.0457C71.4893 66.2803 71.3841 64.3943 71.7591 62.5755C71.9978 60.8887 72.5894 59.272 73.4947 57.8313C74.4 56.3906 75.5986 55.1586 77.0117 54.2166C79.5477 52.5034 82.5569 51.6372 85.6112 51.7415C88.5895 51.7897 91.5074 52.5928 94.0943 54.0764C96.7996 55.496 98.8921 57.8642 99.9745 60.7311L92.8626 63.2293Z" fill="black"/>
<path d="M131.816 79.8776C129.389 84.074 125.521 87.2368 120.939 88.7734C119.001 89.39 116.96 89.6106 114.936 89.4222C112.912 89.2337 110.947 88.64 109.155 87.6761C107.407 86.761 105.834 85.544 104.507 84.0805C103.112 82.5784 101.995 80.8388 101.206 78.9436C99.429 74.7079 99.1986 69.9777 100.556 65.5879C101.638 61.3739 104.206 57.6981 107.784 55.2441C110.985 53.0526 114.852 52.061 118.707 52.4423C122.576 52.719 126.219 54.3751 128.98 57.1122C131.831 60.0187 133.582 63.8341 133.931 67.8995V68.3199V68.8802C134.07 70.7482 134.186 72.6161 134.303 74.4607L108.225 78.6634C109.231 80.0102 110.526 81.1116 112.014 81.8856C114.164 83.0082 116.666 83.2428 118.986 82.5394C122.118 81.4362 124.739 79.2182 126.354 76.3051L131.816 79.8776ZM105.994 72.5693L127.609 68.9734C127.426 66.2118 126.273 63.6053 124.355 61.6187C122.669 59.9233 120.435 58.8883 118.057 58.7C115.66 58.4707 113.26 59.0902 111.27 60.4512C108.95 62.0728 107.297 64.4882 106.622 67.2456C106.111 68.971 105.899 70.7717 105.994 72.5693Z" fill="black"/>
<path d="M161.588 86.3919C162.148 83.5222 162.444 80.6066 162.471 77.6825C162.552 74.5424 162.24 71.4046 161.542 68.3428C161.089 65.833 159.982 63.4887 158.334 61.5484C157.559 60.7647 156.629 60.152 155.605 59.7499C154.58 59.3479 153.483 59.1653 152.385 59.2135C150.46 59.3898 148.65 60.2124 147.248 61.5484C145.636 62.9215 144.2 64.49 142.972 66.2183L143.808 89.0769L136.627 89.357L135.255 51.7884L142.46 51.5082L142.623 56.0147C143.946 54.8788 145.415 53.9282 146.992 53.1892C148.657 52.3682 150.483 51.9297 152.338 51.9052C154.417 51.8504 156.483 52.2382 158.402 53.043C160.321 53.8479 162.048 55.0516 163.471 56.575C165.988 59.4363 167.725 62.903 168.514 66.6384C169.343 70.3295 169.71 74.1103 169.607 77.8928C169.565 81.2469 169.231 84.591 168.607 87.8863L161.588 86.3919Z" fill="black"/>
<path d="M179.624 53.0493V53.4463C179.624 53.7265 179.624 54.1 179.624 54.567V54.8472V55.1741V55.4076V55.7345V56.0614V56.2014V56.3416V56.6682V56.9951V57.2289V57.5555V57.8824V58.2093V58.5363V58.723V59.0499V59.3768V59.5638V59.8904V60.2173V60.4975V60.8244V61.1514V61.4783V61.8052V61.9451V62.0854V62.4123V62.7392V63.0194V63.3463V63.673V63.9999V64.3268V64.5138V64.8404V65.1673V65.3543C182.083 63.5724 184.972 62.4841 187.991 62.2022C190.926 61.8758 193.895 62.3432 196.59 63.5564C199.227 64.7128 201.454 66.6415 202.982 69.0901C204.196 71.0517 205.091 73.1957 205.631 75.441C206.111 77.469 206.445 79.5291 206.631 81.6052C206.631 82.0722 206.747 82.7961 206.817 83.7535C206.832 84.0334 206.832 84.314 206.817 84.594L199.542 85.2478C199.52 84.9681 199.52 84.6868 199.542 84.407C199.542 83.473 199.379 82.7728 199.31 82.3058C199.17 80.6013 198.913 78.9082 198.543 77.239C198.194 75.7554 197.614 74.3367 196.823 73.036C196.008 71.7751 194.833 70.7905 193.453 70.2108C191.988 69.583 190.386 69.3495 188.804 69.5336C187.141 69.6507 185.537 70.2066 184.156 71.1449C182.864 71.9914 181.859 73.213 181.274 74.6472C180.636 76.2498 180.328 77.9654 180.368 79.6907C180.387 80.0095 180.387 80.329 180.368 80.6478V80.8582C180.368 82.4226 180.368 83.73 180.53 84.8508C180.53 85.2944 180.53 85.668 180.53 85.9949C180.53 86.3218 180.53 86.3219 180.53 86.3919L173.209 86.6955V86.5552V86.4153C173.209 86.1118 173.209 85.7613 173.209 85.3177L173.046 81.3251L172.465 69.2534L171.954 57.112L171.722 53.1428V52.4655V51.6718L179.624 53.0493Z" fill="black"/>
<path d="M238.425 54.1934C238.425 54.1934 238.425 54.3335 238.425 54.567V55.7578V59.9138L238.635 72.5691V77.2389C238.681 77.5329 238.681 77.8323 238.635 78.1262L238.774 85.131V89.2872V90.9215L231.801 91.0617V89.4739V85.6679C230.659 86.3121 229.461 86.8515 228.222 87.2792C225.775 88.163 223.145 88.4118 220.576 88.0029C218.207 87.5909 216.004 86.5051 214.231 84.8742C212.652 83.4114 211.401 81.6288 210.559 79.644C209.66 77.5155 209.126 75.2499 208.978 72.9428C208.792 70.5833 209.036 68.2094 209.699 65.938C210.289 63.792 211.309 61.7897 212.697 60.054C214.28 58.1008 216.348 56.6025 218.693 55.7111C221.204 54.7593 223.906 54.423 226.572 54.7303C228.185 54.8951 229.757 55.3376 231.22 56.038V54.5436C231.22 54.3102 231.22 54.17 231.22 54.1466L238.425 54.1934ZM230.895 64.3502C230.413 63.6493 229.745 63.0991 228.966 62.7626C228.102 62.2848 227.156 61.9758 226.177 61.8519C224.756 61.5955 223.292 61.7195 221.934 62.2114C220.575 62.7032 219.369 63.5454 218.437 64.6537C216.658 66.8832 215.823 69.7264 216.113 72.5691C216.186 73.99 216.5 75.3879 217.043 76.702C217.519 77.8517 218.223 78.8921 219.112 79.7605C219.899 80.4712 220.862 80.9554 221.9 81.1617C223.325 81.3834 224.782 81.2304 226.131 80.7179C228.383 79.9407 230.356 78.5107 231.801 76.6085C231.801 75.3009 231.801 73.9935 231.801 72.7093V65.3076C231.469 65.0462 231.193 64.7206 230.988 64.3502H230.895Z" fill="black"/>
<path d="M250.697 51.8352C250.71 51.936 250.71 52.038 250.697 52.1387C250.697 52.4423 250.697 52.8159 250.697 53.3062V54.4503C251.707 53.5226 252.928 52.8573 254.253 52.5124C255.533 52.1872 256.879 52.2339 258.134 52.6472C259.389 53.0606 260.502 53.8236 261.342 54.8473L261.969 55.5243C262.68 54.4965 263.542 53.5835 264.526 52.816C266.455 51.3792 268.773 50.5649 271.173 50.481C272.843 50.4411 274.492 50.8536 275.948 51.6753C277.404 52.497 278.612 53.6977 279.447 55.1509C280.707 57.3664 281.551 59.7963 281.934 62.3189C282.375 65.0199 282.585 67.754 282.561 70.4911C282.612 75.544 282.058 80.5848 280.911 85.5048L274.473 83.8935C275.496 79.5015 275.988 75.0015 275.937 70.4911C276.237 66.4163 275.518 62.3311 273.846 58.6065C273.625 58.1784 273.292 57.8193 272.882 57.5682C272.472 57.3171 272.001 57.1836 271.521 57.1822C270.504 57.1986 269.512 57.5064 268.663 58.0695C267.845 58.713 267.218 59.5687 266.85 60.5444C266.322 61.81 265.947 63.135 265.734 64.4905C265.519 65.9841 265.387 67.4884 265.339 68.9968L259.18 68.7166H258.878C258.878 68.413 258.878 68.1095 258.878 67.8293C258.75 67.4188 258.665 66.9966 258.622 66.5686C258.622 66.1172 258.53 65.4632 258.344 64.6071C258.344 64.4203 258.344 64.2804 258.344 64.2337C258.245 63.2401 258.067 62.2562 257.809 61.2917C257.617 60.6355 257.284 60.0297 256.833 59.5171C256.699 59.3686 256.542 59.2425 256.368 59.1435L256.159 59.0033C255.499 59.3334 254.938 59.8331 254.532 60.4512C253.73 61.5368 253.102 62.7421 252.672 64.0234C252.328 64.9254 252.147 65.8825 252.138 66.8488L252.44 69.9074L253.602 82.3524C253.765 83.9635 253.904 85.3178 253.997 86.4619C253.997 86.9055 253.997 87.2793 254.137 87.5829V87.9796L247.559 88.6101V88.4701V88.3299V87.2092L247.141 83.0997L245.979 70.6778L244.794 58.2796L244.375 54.1701V53.8899V53.7497V53.6097V53.4231V53.2828V53.1429C244.356 53.0348 244.356 52.924 244.375 52.816L250.697 51.8352Z" fill="black"/>
<path d="M299.76 53.0727C302.344 53.1163 304.891 53.6945 307.242 54.7711C309.594 55.8478 311.699 57.3996 313.426 59.3301C314.882 61.0064 316.003 62.9488 316.727 65.0508C317.465 67.1736 317.827 69.41 317.796 71.6585C317.778 73.8715 317.36 76.0629 316.564 78.1262C315.806 80.1423 314.652 81.9844 313.171 83.5431C311.544 85.2681 309.549 86.6012 307.337 87.4425C304.987 88.3267 302.471 88.6777 299.97 88.47C297.631 88.4048 295.342 87.7718 293.299 86.6254C291.334 85.487 289.674 83.884 288.465 81.9555C286.223 78.3889 285.218 74.1776 285.606 69.9774C285.776 65.846 287.141 61.8539 289.534 58.4895C290.763 56.7982 292.351 55.4025 294.182 54.4034C295.895 53.4812 297.818 53.0227 299.76 53.0727ZM299.76 59.7037C298.764 59.7106 297.785 59.9739 296.919 60.4685C296.052 60.963 295.326 61.6723 294.81 62.5289C293.169 64.8649 292.248 67.6336 292.16 70.491C291.87 73.2556 292.5 76.0389 293.95 78.4064C294.638 79.4685 295.579 80.3422 296.686 80.9494C297.793 81.5566 299.033 81.8783 300.295 81.8854C301.762 82.0363 303.244 81.8547 304.632 81.3536C306.019 80.8525 307.278 80.0447 308.313 78.9901C310.176 76.9747 311.191 74.3146 311.149 71.565C311.267 68.6826 310.277 65.865 308.383 63.6963C307.29 62.4913 305.968 61.5174 304.495 60.8319C303.023 60.1463 301.429 59.7628 299.807 59.7037H299.76Z" fill="black"/>
<path d="M339.387 62.1555C339.154 61.0388 338.506 60.0533 337.574 59.4001C336.486 58.5121 335.19 57.9175 333.809 57.6723C332.551 57.3566 331.226 57.4464 330.021 57.9291C329.478 58.1599 328.99 58.5042 328.589 58.939C328.188 59.3737 327.884 59.8892 327.697 60.451C327.486 60.9342 327.405 61.4645 327.462 61.989C327.519 62.5135 327.712 63.0136 328.022 63.4395C328.468 64.0508 329.001 64.5937 329.603 65.0507C330.091 65.471 330.904 66.1013 332.066 66.9185C333.368 67.8525 334.39 68.5764 334.948 69.0667C335.975 69.9188 336.889 70.8996 337.668 71.9854C338.591 73.2933 339.146 74.8264 339.277 76.4243C339.408 78.0222 339.109 79.6263 338.411 81.0682C337.943 82.2399 337.224 83.2933 336.304 84.153C335.384 85.0128 334.286 85.6576 333.089 86.0416C330.926 86.8112 328.578 86.8845 326.372 86.2516C325.233 85.9793 324.16 85.4792 323.218 84.7812C322.275 84.0832 321.483 83.2015 320.887 82.1889C320.221 80.9861 319.859 79.6369 319.835 78.2604C319.81 76.884 320.124 75.5227 320.748 74.2969L326.419 76.7954C326.191 77.2698 326.064 77.7865 326.047 78.3129C326.064 78.5739 326.135 78.8286 326.256 79.0602C326.453 79.3721 326.711 79.6405 327.015 79.8492C327.319 80.0579 327.661 80.2026 328.022 80.2744C328.989 80.5918 330.031 80.5918 330.997 80.2744C331.374 80.1567 331.721 79.9607 332.018 79.6992C332.314 79.4378 332.552 79.1166 332.717 78.7567C333 78.1768 333.128 77.5331 333.089 76.8886C333.018 76.423 332.835 75.9821 332.554 75.6046C332.107 74.9952 331.584 74.4458 330.997 73.97C330.509 73.573 329.649 72.9428 328.487 72.1256C327.209 71.215 326.163 70.5144 325.675 70.0007C324.667 69.196 323.768 68.2617 323.002 67.222C322.061 65.9787 321.463 64.5085 321.267 62.9592C321.071 61.4099 321.285 59.8363 321.886 58.3963C322.351 57.0459 323.095 55.8091 324.068 54.7671C325.041 53.725 326.222 52.9008 327.534 52.3486C329.889 51.3427 332.499 51.106 334.995 51.6717C337.439 52.1712 339.722 53.2701 341.642 54.8705C343.653 56.4656 345.003 58.7537 345.43 61.2915L339.387 62.1555Z" fill="black"/>
<path d="M145.505 100.588C146.77 101.779 147.648 103.324 148.025 105.024C148.402 106.723 148.261 108.497 147.62 110.114C146.473 114.068 142.453 116.691 135.558 117.983L135.697 112.613C137.964 112.577 140.188 111.993 142.181 110.909C143.046 110.432 143.701 109.648 144.02 108.71C144.338 107.773 144.296 106.75 143.901 105.842C143.251 103.507 140.903 102.549 136.929 102.9C136.929 113.796 137.029 121.291 137.231 125.385H133.071C132.9 117.135 132.676 107.943 132.397 97.8097C138.533 97.226 142.925 98.2532 145.505 100.588Z" fill="black"/>
<path d="M163.169 95.9183C164.95 104.09 167.127 114.208 169.7 126.272H164.865L163.866 119.267L156.452 118.964L155.429 127.23H150.781C152.33 118.513 154.073 108.068 156.01 95.8949L163.169 95.9183ZM156.754 113.944L163.564 114.107C162.67 109.693 161.307 105.387 159.496 101.265L156.754 113.944Z" fill="black"/>
<path d="M183.947 99.3739C185.082 100.386 185.941 101.671 186.445 103.109C186.95 104.547 187.082 106.09 186.829 107.593C186.582 109.178 185.981 110.686 185.072 112.004C184.162 113.322 182.967 114.417 181.576 115.205C183.739 118.99 185.702 122.887 187.456 126.879L182.483 127.907C181.467 123.859 179.993 119.942 178.09 116.232L174.348 116.629L174.488 112.356C176.844 112.304 179.119 111.485 180.972 110.021C181.811 109.439 182.437 108.595 182.752 107.621C183.067 106.646 183.054 105.594 182.715 104.627C182.064 102.433 179.694 101.639 175.743 102.293C175.51 114.317 175.487 122.023 175.743 125.455H171.908C171.753 116.271 171.528 106.846 171.234 97.1792C177.3 96.362 181.576 97.0857 183.947 99.3739Z" fill="black"/>
<path d="M201.308 95.9183C203.09 104.09 205.267 114.208 207.839 126.272H203.098L202.099 119.267L194.684 118.964L193.662 127.23H189.013C190.64 118.513 192.383 108.068 194.243 95.8949L201.308 95.9183ZM194.894 113.944L201.703 114.107C200.799 109.695 199.436 105.391 197.636 101.265L194.894 113.944Z" fill="black"/>
<path d="M223.156 123.937L217.113 98.4399L221.529 97.5062L226.177 117.656L231.151 97.0624L236.241 97.8795L228.106 123.82L223.156 123.937Z" fill="black"/>
<path d="M249.86 124.194C248.341 125.054 246.55 125.291 244.861 124.856C243.172 124.421 241.716 123.347 240.796 121.859C238.524 118.267 237.617 113.974 238.239 109.764C238.735 104.861 240.672 101.592 244.05 99.9576C245.555 99.1333 247.294 98.8461 248.982 99.143C250.671 99.4399 252.209 100.303 253.347 101.592C256.167 104.316 257.259 108.379 256.624 113.78C255.988 119.182 253.734 122.653 249.86 124.194ZM249.326 118.847C250.339 118.239 251.182 117.382 251.775 116.357C252.369 115.332 252.693 114.172 252.719 112.987C252.933 111.734 252.853 110.449 252.486 109.233C252.119 108.017 251.474 106.904 250.604 105.982C250.285 105.563 249.878 105.218 249.413 104.974C248.947 104.729 248.434 104.589 247.909 104.565C247.385 104.541 246.861 104.632 246.375 104.832C245.889 105.032 245.452 105.337 245.096 105.725C244.129 106.533 243.372 107.565 242.89 108.733C242.408 109.9 242.216 111.167 242.33 112.426C242.222 114.653 242.991 116.833 244.468 118.497C245.117 119.103 245.952 119.469 246.836 119.532C247.719 119.596 248.598 119.354 249.326 118.847Z" fill="black"/>
<path d="M268.686 101.849C266.222 102.923 264.828 105.678 264.503 110.138C264.177 114.598 264.805 117.726 266.362 119.477C266.855 120.264 267.586 120.871 268.447 121.211C269.308 121.551 270.255 121.607 271.15 121.369C272.777 120.832 273.474 118.31 273.474 113.851L277.82 114.364C278.034 116.747 277.683 119.148 276.797 121.369C276.389 122.916 275.485 124.285 274.224 125.264C272.964 126.243 271.418 126.778 269.825 126.786C266.261 127.113 263.511 125.167 261.574 120.948C259.594 116.307 259.02 111.183 259.924 106.215C260.745 100.612 263.596 97.3115 268.477 96.3153C273.358 95.3347 276.472 98.6501 277.774 106.659L272.846 108.223C272.536 102.915 271.15 100.791 268.686 101.849Z" fill="black"/>
<path d="M292.788 97.2026V103.577C290.022 103.367 287.163 103.25 284.235 103.203L284.351 111.632H291.928L291.533 116.302H284.816V122.186H292.718V127.416C288.651 127.416 284.467 127.276 280.144 127.416C280.423 118.31 280.354 108.441 279.935 97.8097C284.235 97.5762 288.558 97.3894 292.788 97.2026ZM292.3 92.5328L290.603 94.8677L286.141 92.3926L281.074 94.8911L279.865 92.5562L286.141 88.4932L292.3 92.5328Z" fill="black"/>
</g>
<defs>
<clipPath id="clip0_305_348">
<rect width="345" height="128" fill="white" transform="translate(0.5)"/>
</clipPath>
</defs>
</svg>
