<svg width="128" height="40" viewBox="0 0 128 40" fill="none" xmlns="http://www.w3.org/2000/svg">
<path d="M47.158 6.15332H49.2883C49.7921 6.15332 50.2023 6.56354 50.2023 7.06732V29.8381C50.2023 30.1548 50.4614 30.4138 50.778 30.4138H64.2865C64.7903 30.4138 65.2005 30.8241 65.2005 31.3278V32.9471C65.2005 33.4509 64.7903 33.8611 64.2865 33.8611H47.158C46.6543 33.8611 46.244 33.4509 46.244 32.9471V7.07451C46.244 6.57074 46.6543 6.16051 47.158 6.16051V6.15332Z" fill="white"/>
<path d="M87.1365 26.9234H73.1746C72.9443 26.9234 72.7356 27.0601 72.6421 27.2688L69.9864 33.2998C69.8425 33.6308 69.5114 33.8467 69.1516 33.8467H67.0861C66.424 33.8467 65.985 33.163 66.2585 32.5585L77.9749 6.68588C78.1261 6.36203 78.4499 6.15332 78.8026 6.15332H81.5446C81.9044 6.15332 82.2283 6.36203 82.3722 6.68588L94.1246 32.5585C94.3981 33.163 93.9591 33.8467 93.297 33.8467H91.1523C90.7925 33.8467 90.4614 33.6308 90.3175 33.2998L87.6619 27.2688C87.5683 27.0601 87.3596 26.9234 87.1293 26.9234H87.1365ZM85.8555 23.1234L80.573 11.1191C80.4146 10.7593 79.9037 10.7593 79.7453 11.1191L74.4629 23.1234C74.3333 23.4185 74.5492 23.7568 74.8731 23.7568H85.438C85.7619 23.7568 85.9778 23.4257 85.8482 23.1234H85.8555Z" fill="white"/>
<path d="M98.7954 6.15332H100.926C101.429 6.15332 101.84 6.56354 101.84 7.06732V32.9399C101.84 33.4437 101.429 33.8539 100.926 33.8539H98.7954C98.2916 33.8539 97.8813 33.4437 97.8813 32.9399V7.06732C97.8813 6.56354 98.2916 6.15332 98.7954 6.15332Z" fill="white"/>
<path d="M111.239 33.1989C109.612 32.6591 108.274 31.9754 107.23 31.1622C106.892 30.8959 106.784 30.4353 106.971 30.0539L107.64 28.6433C107.878 28.1323 108.525 27.9524 108.986 28.2763C109.886 28.924 110.958 29.4637 112.196 29.91C113.844 30.5001 115.542 30.8024 117.277 30.8024C119.573 30.8024 121.285 30.4137 122.423 29.6365C123.56 28.8592 124.121 27.8229 124.121 26.5274C124.121 25.5775 123.812 24.8074 123.193 24.2101C122.574 23.6199 121.811 23.1593 120.897 22.8427C119.99 22.526 118.702 22.1734 117.039 21.7775C114.952 21.2738 113.275 20.7772 111.994 20.2734C110.713 19.7696 109.619 18.9995 108.713 17.956C107.806 16.9125 107.345 15.5091 107.345 13.7387C107.345 12.2633 107.734 10.9319 108.511 9.74442C109.288 8.55695 110.469 7.60697 112.052 6.89448C113.635 6.18199 115.6 5.82935 117.946 5.82935C119.58 5.82935 121.192 6.03806 122.775 6.46267C124.056 6.80092 125.193 7.26872 126.179 7.85166C126.575 8.08196 126.733 8.56414 126.561 8.98876L125.942 10.4857C125.733 10.9895 125.143 11.1982 124.668 10.9391C123.768 10.4497 122.818 10.0611 121.825 9.77321C120.508 9.39178 119.213 9.19746 117.946 9.19746C115.701 9.19746 114.024 9.60769 112.901 10.4209C111.778 11.2414 111.217 12.2921 111.217 13.5875C111.217 14.5375 111.534 15.3076 112.167 15.9049C112.8 16.4951 113.585 16.9628 114.52 17.2867C115.456 17.6178 116.73 17.9632 118.342 18.3374C120.422 18.8412 122.099 19.3378 123.365 19.8416C124.632 20.3454 125.719 21.1082 126.633 22.1374C127.539 23.1665 128 24.5483 128 26.2899C128 27.7437 127.604 29.0679 126.813 30.2698C126.021 31.4717 124.819 32.4216 123.214 33.1197C121.602 33.8178 119.623 34.1705 117.277 34.1705C115.19 34.1705 113.182 33.8466 111.246 33.1989H111.239Z" fill="white"/>
<path d="M38.8888 18.4888C38.054 18.4888 37.3775 19.1653 37.3775 20.0001C37.3775 29.356 29.7633 36.9702 20.4074 36.9702C13.2969 36.9702 6.88454 32.4794 4.45201 25.8079C4.31527 25.4265 4.03459 25.1242 3.66756 24.9515C3.30052 24.7788 2.89029 24.7644 2.50885 24.9011C1.7244 25.189 1.32137 26.0598 1.60205 26.8443C4.46639 34.7176 12.0231 40.0001 20.4002 40.0001C31.4257 40.0001 40.4002 31.0257 40.4002 20.0001C40.4002 19.1653 39.7237 18.4888 38.8888 18.4888Z" fill="white"/>
<path d="M38.8888 18.4888H29.4178L25.9993 10.8457C25.7474 10.2844 25.1789 9.93892 24.5599 9.95331C23.941 9.9749 23.4012 10.3635 23.1925 10.9465L19.2774 21.7057L16.2908 14.2426C16.0677 13.6813 15.5279 13.307 14.9234 13.2926H14.8874C14.2972 13.2926 13.7503 13.6381 13.5056 14.1779L11.5552 18.4816H1.91868C1.08384 18.4816 0.407349 19.1581 0.407349 19.9929C0.407349 20.8277 1.08384 21.5042 1.91868 21.5042H12.534C13.1241 21.5042 13.6711 21.1588 13.9158 20.619L14.801 18.6615L17.9388 26.506C18.1691 27.0818 18.7233 27.456 19.3422 27.456H19.3638C19.9899 27.4488 20.5513 27.0458 20.76 26.4628L24.7542 15.4877L27.05 20.6118C27.2947 21.1588 27.8345 21.5042 28.4318 21.5042H38.8816C39.7165 21.5042 40.393 20.8277 40.393 19.9929C40.393 19.1581 39.7165 18.4816 38.8816 18.4816L38.8888 18.4888Z" fill="white"/>
<path d="M39.1983 13.1558C36.3339 5.28247 28.7773 0 20.4002 0C9.3746 0 0.400146 8.97445 0.400146 20C0.400146 20.8348 1.07665 21.5113 1.91149 21.5113C2.74632 21.5113 3.4228 20.8348 3.4228 20C3.4228 10.6441 11.0371 3.02987 20.3929 3.02987C27.5034 3.02987 33.9158 7.51349 36.3483 14.1922C36.4851 14.5736 36.7658 14.8759 37.1328 15.0486C37.4998 15.2213 37.91 15.2357 38.2915 15.099C38.6729 14.9622 38.9752 14.6815 39.1479 14.3145C39.3206 13.9475 39.335 13.5372 39.1983 13.1558Z" fill="white"/>
</svg>
